<svg width="117" height="110" viewBox="0 0 117 110" fill="none" xmlns="http://www.w3.org/2000/svg">
<path d="M58.4997 102.714C84.6546 102.714 105.857 81.5119 105.857 55.357C105.857 29.2025 84.6546 8 58.4997 8C32.3452 8 11.1427 29.2025 11.1427 55.357C11.1427 81.5119 32.3452 102.714 58.4997 102.714Z" fill="url(#paint0_linear_201_2)"/>
<path d="M58.499 101.321C83.8841 101.321 104.463 80.7421 104.463 55.357C104.463 29.9714 83.8841 9.39252 58.499 9.39252C33.1134 9.39252 12.5345 29.9714 12.5345 55.357C12.5345 80.7421 33.1134 101.321 58.499 101.321Z" fill="url(#paint1_linear_201_2)"/>
<path opacity="0.5" d="M58.4995 12.7917C34.988 12.7917 15.9337 31.846 15.9337 55.3575C15.9337 78.8687 34.988 97.9231 58.4995 97.9231C82.0107 97.9231 101.065 78.8687 101.065 55.3575C101.065 31.846 82.0107 12.7917 58.4995 12.7917ZM58.4995 94.4131C36.938 94.4131 19.4437 76.9187 19.4437 55.3575C19.4437 33.796 36.938 16.3017 58.4995 16.3017C80.0607 16.3017 97.5551 33.796 97.5551 55.3575C97.5551 76.9187 80.0607 94.4131 58.4995 94.4131Z" fill="url(#paint2_linear_201_2)"/>
<path d="M58.5005 94.357C80.0397 94.357 97.5005 76.8962 97.5005 55.357C97.5005 33.8179 80.0397 16.357 58.5005 16.357C36.9614 16.357 19.5005 33.8179 19.5005 55.357C19.5005 76.8962 36.9614 94.357 58.5005 94.357Z" fill="url(#paint3_linear_201_2)"/>
<path d="M58.5 93.0478C79.3158 93.0478 96.1906 76.173 96.1906 55.3573C96.1906 34.5412 79.3158 17.6664 58.5 17.6664C37.6839 17.6664 20.8092 34.5412 20.8092 55.3573C20.8092 76.173 37.6839 93.0478 58.5 93.0478Z" fill="url(#paint4_linear_201_2)"/>
<path d="M83.9606 40.8704C83.7656 40.5361 83.3201 40.4526 82.9856 40.6476L60.2545 55.2166L42.0637 43.2939C41.423 42.8761 40.5594 43.0433 40.1416 43.6839C39.7237 44.3247 39.8908 45.1883 40.5316 45.6061L58.8617 57.6126L59.6139 56.4426L59.9756 57.0276L83.7378 41.8176C84.0723 41.6226 84.1556 41.2047 83.9606 40.8704Z" fill="url(#paint5_linear_201_2)"/>
<path d="M63.5695 56.4722C63.5695 55.4133 63.1512 54.4661 62.4828 53.7422V47.5577C62.4828 45.97 61.2012 44.6884 59.6134 44.6884C58.0256 44.6884 56.744 45.97 56.744 47.5577V53.7422C56.0756 54.4383 55.6578 55.4133 55.6578 56.4722C55.6578 58.4777 57.1345 60.1211 59.0562 60.4V88.1455C59.0562 88.4522 59.3073 88.7027 59.6134 88.7027C59.9201 88.7027 60.1706 88.4522 60.1706 88.1455V60.4C62.0928 60.1211 63.5695 58.4777 63.5695 56.4722Z" fill="url(#paint6_linear_201_2)"/>
<path d="M61.2856 23.2658C73.0694 23.2658 83.655 28.3079 91.065 36.3307C84.5184 25.1601 72.4006 17.6664 58.5 17.6664C37.6906 17.6664 20.8092 34.5479 20.8092 55.3573C20.8092 56.8056 20.8928 58.2267 21.0599 59.6195C23.0935 39.2 40.3371 23.2658 61.2856 23.2658Z" fill="url(#paint7_linear_201_2)"/>
<path d="M58.4995 98.1178C34.9326 98.1178 15.739 78.9239 15.739 55.3567C15.739 31.7898 34.9326 12.5963 58.4995 12.5963C82.0667 12.5963 101.261 31.7898 101.261 55.3567C101.261 78.9239 82.0667 98.1178 58.4995 98.1178ZM58.4995 12.8748C35.0718 12.8748 16.0176 31.9291 16.0176 55.3567C16.0176 78.785 35.0718 97.8389 58.4995 97.8389C81.9278 97.8389 100.982 78.785 100.982 55.3567C100.982 31.9291 81.9278 12.8748 58.4995 12.8748Z" fill="white"/>
<path d="M58.9455 25.5495H58.0544L57.7755 18.6688H59.2244L58.9455 25.5495Z" fill="#3C2200"/>
<path d="M57.9433 23.4045C58.3055 23.3767 58.6677 23.3488 59.0299 23.321L59.2249 18.6688H57.7483L57.9433 23.4045Z" fill="black"/>
<path d="M58.0544 85.1642H58.9455L59.2244 92.0448H57.7755L58.0544 85.1642Z" fill="#3C2200"/>
<path d="M88.307 55.804V54.9124L95.1876 54.634V56.0824L88.307 55.804Z" fill="#3C2200"/>
<path d="M28.6922 54.9124V55.804L21.8115 56.0824V54.634L28.6922 54.9124Z" fill="#3C2200"/>
<path d="M73.0133 81.4029L73.7933 80.9296L77.47 86.7518L76.1889 87.504L73.0133 81.4029Z" fill="#3C2200"/>
<path d="M43.9851 29.3113L43.2051 29.7849L39.528 23.9627L40.8094 23.2106L43.9851 29.3113Z" fill="#3C2200"/>
<path d="M84.073 70.6505L84.5464 69.8705L90.6474 73.0461L89.8952 74.3273L84.073 70.6505Z" fill="#3C2200"/>
<path d="M32.9263 40.063L32.4527 40.843L26.3521 37.6674L27.1042 36.3859L32.9263 40.063Z" fill="#3C2200"/>
<path d="M84.5464 40.843L84.073 40.063L89.8952 36.3859L90.6474 37.6674L84.5464 40.843Z" fill="#3C2200"/>
<path d="M32.4527 69.8705L32.9263 70.6505L27.1042 74.3273L26.3521 73.0461L32.4527 69.8705Z" fill="#3C2200"/>
<path d="M73.7933 29.7849L73.0133 29.3113L76.1889 23.2106L77.47 23.9627L73.7933 29.7849Z" fill="#3C2200"/>
<path d="M43.2051 80.9296L43.9851 81.4029L40.8094 87.504L39.528 86.7518L43.2051 80.9296Z" fill="#3C2200"/>
<path d="M76.1332 26.078L77.4699 23.9608L76.1888 23.2365L74.9349 25.6322C75.3532 25.7715 75.7432 25.9387 76.1332 26.078Z" fill="black"/>
<path d="M40.8093 23.2106L39.528 23.9349L42.1465 28.0577C42.453 27.8906 42.7872 27.7235 43.0936 27.5563L40.8093 23.2106Z" fill="black"/>
<path opacity="0.25" d="M29.1675 44.2406C29.7525 41.3435 31.0338 38.5856 32.7053 36.0785C34.3767 33.5992 36.4938 31.3706 38.8896 29.5321C41.2853 27.6935 43.9875 26.2449 46.8289 25.2699C49.6701 24.3227 52.6789 23.8213 55.6317 24.0163C56.1889 24.0442 56.6067 24.5456 56.5789 25.1027C56.5512 25.5206 56.2723 25.8549 55.9101 25.9942C53.2917 26.9692 50.7845 27.9442 48.4446 29.1699C46.0767 30.3677 43.8482 31.7606 41.7589 33.3206C39.6696 34.9085 37.7196 36.6634 35.9088 38.6134C34.0982 40.5634 32.4546 42.6806 30.811 44.9649C30.5046 45.3827 29.9475 45.4663 29.5296 45.1599C29.2232 44.9371 29.0838 44.5749 29.1675 44.2406Z" fill="white"/>
<path d="M27.1049 36.3859L26.3806 37.6673L29.1942 39.1438C29.4449 38.8095 29.6956 38.503 29.9463 38.1966L27.1049 36.3859Z" fill="black"/>
<path d="M58.4995 56.7515C58.2489 56.7515 57.9701 56.6677 57.7473 56.5287L39.0274 44.2714C38.3866 43.8535 38.1916 42.9899 38.6374 42.3492C39.0552 41.7085 39.9188 41.5135 40.5595 41.9592L59.2795 54.2165C59.9201 54.6343 60.1151 55.4977 59.6695 56.1387C59.3912 56.5287 58.9451 56.7515 58.4995 56.7515Z" fill="#3C2200"/>
<path d="M58.4992 56.0529C58.2764 56.0529 58.0536 55.9413 57.9142 55.7185C57.7192 55.3841 57.8026 54.9663 58.137 54.7435L82.4842 39.1434C82.8186 38.9484 83.2364 39.032 83.4592 39.3663C83.682 39.7006 83.5703 40.1184 83.2364 40.3413L58.8892 55.9413C58.7498 56.0246 58.6386 56.0529 58.4992 56.0529Z" fill="#3C2200"/>
<path d="M58.5002 87.5885C58.1941 87.5885 57.943 87.3374 57.943 87.0313V55.3574C57.943 55.0513 58.1941 54.8002 58.5002 54.8002C58.8068 54.8002 59.0574 55.0513 59.0574 55.3574V87.0313C59.0574 87.3374 58.8068 87.5885 58.5002 87.5885Z" fill="url(#paint8_linear_201_2)"/>
<path d="M58.4996 43.5718C56.9118 43.5718 55.6306 44.8532 55.6306 46.4411V55.3555H61.369V46.4411C61.369 44.8532 60.0878 43.5718 58.4996 43.5718Z" fill="url(#paint9_linear_201_2)"/>
<path d="M58.4994 59.3122C60.6839 59.3122 62.455 57.5411 62.455 55.3566C62.455 53.1721 60.6839 51.4011 58.4994 51.4011C56.3149 51.4011 54.5438 53.1721 54.5438 55.3566C54.5438 57.5411 56.3149 59.3122 58.4994 59.3122Z" fill="url(#paint10_linear_201_2)"/>
<defs>
<linearGradient id="paint0_linear_201_2" x1="69.3997" y1="82.0335" x2="37.6427" y2="4.31192" gradientUnits="userSpaceOnUse">
<stop stop-color="#8EA5A8"/>
<stop offset="1" stop-color="#CFDCDE"/>
</linearGradient>
<linearGradient id="paint1_linear_201_2" x1="30.4973" y1="-21.3283" x2="122.148" y2="229.665" gradientUnits="userSpaceOnUse">
<stop stop-color="white"/>
<stop offset="1" stop-color="#A9BCBE"/>
</linearGradient>
<linearGradient id="paint2_linear_201_2" x1="17.9532" y1="-19.0517" x2="85.5533" y2="105.005" gradientUnits="userSpaceOnUse">
<stop stop-color="#8EA5A8"/>
<stop offset="1" stop-color="#DEE7E8"/>
</linearGradient>
<linearGradient id="paint3_linear_201_2" x1="89.1096" y1="200.387" x2="54.0062" y2="34.063" gradientUnits="userSpaceOnUse">
<stop stop-color="white"/>
<stop offset="1" stop-color="#A9BCBE"/>
</linearGradient>
<linearGradient id="paint4_linear_201_2" x1="54.1993" y1="47.5899" x2="91.5277" y2="115.004" gradientUnits="userSpaceOnUse">
<stop stop-color="white"/>
<stop offset="1" stop-color="#CFDCDE"/>
</linearGradient>
<linearGradient id="paint5_linear_201_2" x1="78.2681" y1="71.4347" x2="51.2899" y2="24.2694" gradientUnits="userSpaceOnUse">
<stop stop-color="#A9BCBE" stop-opacity="0"/>
<stop offset="1" stop-color="#8EA5A8"/>
</linearGradient>
<linearGradient id="paint6_linear_201_2" x1="84.1971" y1="76.0745" x2="6.05778" y2="45.9885" gradientUnits="userSpaceOnUse">
<stop stop-color="#A9BCBE" stop-opacity="0"/>
<stop offset="1" stop-color="#8EA5A8"/>
</linearGradient>
<linearGradient id="paint7_linear_201_2" x1="57.4524" y1="51.0824" x2="31.8236" y2="-5.4677" gradientUnits="userSpaceOnUse">
<stop stop-color="#A9BCBE" stop-opacity="0"/>
<stop offset="1" stop-color="#8EA5A8"/>
</linearGradient>
<linearGradient id="paint8_linear_201_2" x1="65.9614" y1="82.949" x2="51.0385" y2="59.4325" gradientUnits="userSpaceOnUse">
<stop stop-color="#FF9214"/>
<stop offset="1" stop-color="#FF9D00"/>
</linearGradient>
<linearGradient id="paint9_linear_201_2" x1="58.5" y1="48.1142" x2="58.5" y2="57.2743" gradientUnits="userSpaceOnUse">
<stop stop-color="#FF9D00"/>
<stop offset="1" stop-color="#A3541E"/>
</linearGradient>
<linearGradient id="paint10_linear_201_2" x1="62.5788" y1="61.7853" x2="55.6543" y2="50.8726" gradientUnits="userSpaceOnUse">
<stop stop-color="#FF9214"/>
<stop offset="1" stop-color="#FF9D00"/>
</linearGradient>
</defs>
</svg>
